VIDEO INFO


Format                           : AVI
Format/Info                      : Audio Video Interleave
Format profile                   : OpenDML
Format settings                  : rec
File size                        : 698 MiB
Duration                         : 1h 31mn
Overall bit rate                 : 1 072 Kbps
Writing application              : AVI-Mux GUI 1.17.7, Aug  8 2006  20:59:17

Video
ID                               : 0
Format                           : MPEG-4 Visual
Format profile                   : Simple@L3
Format settings, BVOP            : No
Format settings, QPel            : No
Format settings, GMC             : No warppoints
Format settings, Matrix          : Default (H.263)
Codec ID                         : XVID
Codec ID/Hint                    : XviD
Duration                         : 1h 31mn
Bit rate                         : 871 Kbps
Width                            : 688 pixels
Height                           : 368 pixels
Display aspect ratio             : 1.870
Frame rate                       : 23.976 fps
Color space                      : YUV
Chroma subsampling               : 4:2:0
Bit depth                        : 8 bits
Scan type                        : Progressive
Compression mode                 : Lossy
Bits/(Pixel*Frame)               : 0.144
Stream size                      : 567 MiB (81%)
Writing library                  : XviD 1.2.0.dev47 (UTC 2006-11-01)

Audio
ID                               : 1
Format                           : MPEG Audio
Format version                   : Version 1
Format profile                   : Layer 3
Mode                             : Joint stereo
Mode extension                   : MS Stereo
Codec ID                         : 55
Codec ID/Hint                    : MP3
Duration                         : 1h 31mn
Bit rate mode                    : Constant
Bit rate                         : 192 Kbps
Channel(s)                       : 2 channels
Sampling rate                    : 48.0 KHz
Compression mode                 : Lossy
Stream size                      : 125 MiB (18%)
Alignment                        : Aligned on interleaves
Interleave, duration             : 24 ms (0.58 video frame)
Interleave, preload duration     : 192 ms
Writing library                  : LAME3.97 
Encoding settings                : -m j -V 4 -q 2 -lowpass 18.6 -b 192

Text
ID                               : 2
Stream size                      : 52.9 KiB (0%)

--------------------------------------

Verenigde Staten
Horror / Thriller
95 minuten

geregisseerd door Paul Golding
met Cliff De Young, Roxanne Hart en Joey Lawrence

Een intelligente stroom van electriciteit gaat van huis naar huis. Het terroriseert de bewoners en probeert hun te doden. Dan komt de stroom bij een nieuwe familie. De jonge David heeft al snel in de gaten dat er iets niet klopt en probeert de stroom te slim af te zijn.

-Ondertiteling (nederlands) met de mogelijkheid deze aan/uit te zetten.

